<?xml version="1.0" encoding="UTF-8" standalone="no"?>
<!-- Created with Inkscape (http://www.inkscape.org/) -->

<svg
   xmlns:dc="http://purl.org/dc/elements/1.1/"
   xmlns:cc="http://creativecommons.org/ns#"
   xmlns:rdf="http://www.w3.org/1999/02/22-rdf-syntax-ns#"
   xmlns:svg="http://www.w3.org/2000/svg"
   xmlns="http://www.w3.org/2000/svg"
   xmlns:sodipodi="http://sodipodi.sourceforge.net/DTD/sodipodi-0.dtd"
   xmlns:inkscape="http://www.inkscape.org/namespaces/inkscape"
   width="200mm"
   height="50mm"
   viewBox="0 0 200 50"
   version="1.1"
   id="svg836"
   inkscape:version="0.92.4 5da689c313, 2019-01-14"
   sodipodi:docname="btcpay-donate-button.svg">
  <defs
     id="defs830">
    <style
       id="style1413">.cls-1{fill:#cedc21;}.cls-2{fill:#51b13e;}.cls-3{fill:#1e7a44;}.cls-4{fill:#fff;}</style>
  </defs>
  <sodipodi:namedview
     id="base"
     pagecolor="#ffffff"
     bordercolor="#666666"
     borderopacity="1.0"
     inkscape:pageopacity="0.0"
     inkscape:pageshadow="2"
     inkscape:zoom="0.49497475"
     inkscape:cx="-216.58231"
     inkscape:cy="-38.284308"
     inkscape:document-units="mm"
     inkscape:current-layer="layer1"
     showgrid="false"
     inkscape:window-width="1920"
     inkscape:window-height="1052"
     inkscape:window-x="2560"
     inkscape:window-y="0"
     inkscape:window-maximized="1" />
  <metadata
     id="metadata833">
    <rdf:RDF>
      <cc:Work
         rdf:about="">
        <dc:format>image/svg+xml</dc:format>
        <dc:type
           rdf:resource="http://purl.org/dc/dcmitype/StillImage" />
        <dc:title />
      </cc:Work>
    </rdf:RDF>
  </metadata>
  <g
     inkscape:label="Layer 1"
     inkscape:groupmode="layer"
     id="layer1"
     transform="translate(-11.339309,-126.04714)">
    <rect
       style="opacity:1;fill:#0f3b21;fill-opacity:1;stroke:none;stroke-width:1;stroke-linecap:round;stroke-linejoin:miter;stroke-miterlimit:4;stroke-dasharray:none;stroke-dashoffset:0;stroke-opacity:1;paint-order:fill markers stroke"
       id="rect1381"
       width="159.37503"
       height="50"
       x="51.964275"
       y="126.04714"
       ry="13.363477" />
    <g
       id="g1443"
       transform="matrix(0.17249296,0,0,0.17249296,21.953431,134.82094)"
       style="stroke-width:1.53387892">
      <path
         id="path1419"
         transform="translate(-106.19,-58.85)"
         d="m 117.24,247.32 a 11.06,11.06 0 0 1 -11,-11.06 V 69.91 a 11.06,11.06 0 1 1 22.11,0 v 166.35 a 11.06,11.06 0 0 1 -11.11,11.06 z"
         class="cls-1"
         inkscape:connector-curvature="0"
         style="fill:#cedc21;stroke-width:1.53387892" />
      <path
         id="path1421"
         transform="translate(-106.19,-58.85)"
         d="m 117.25,247.32 a 11.06,11.06 0 0 1 -4.75,-21 l 66.66,-31.64 -68.47,-50.48 a 11.053417,11.053417 0 1 1 13.11,-17.8 l 83.35,61.41 a 11,11 0 0 1 -1.82,18.88 L 122,246.25 a 10.94,10.94 0 0 1 -4.75,1.07 z"
         class="cls-2"
         inkscape:connector-curvature="0"
         style="fill:#51b13e;stroke-width:1.53387892" />
      <path
         id="path1423"
         transform="translate(-106.19,-58.85)"
         d="m 117.25,181.93 a 11.05,11.05 0 0 1 -6.56,-20 L 179.16,111.48 112.5,79.89 a 11.066508,11.066508 0 0 1 9.48,-20 l 83.35,39.56 a 11.05,11.05 0 0 1 1.82,18.89 l -83.35,61.44 a 11,11 0 0 1 -6.55,2.15 z"
         class="cls-1"
         inkscape:connector-curvature="0"
         style="fill:#cedc21;stroke-width:1.53387892" />
      <polygon
         id="polygon1425"
         points="22.11,117.61 53.82,94.25 22.11,70.86 "
         class="cls-3"
         style="fill:#1e7a44;stroke-width:1.53387892" />
      <rect
         id="rect1427"
         height="53.889999"
         width="22.110001"
         y="51.259998"
         class="cls-4"
         x="0"
         style="fill:#ffffff;stroke-width:1.53387892" />
      <path
         id="path1429"
         transform="translate(-106.19,-58.85)"
         d="m 128.3,69.91 a 11.06,11.06 0 1 0 -22.11,0 V 209 h 22.11 z"
         class="cls-1"
         inkscape:connector-curvature="0"
         style="fill:#cedc21;stroke-width:1.53387892" />
    </g>
    <text
       xml:space="preserve"
       style="font-style:normal;font-variant:normal;font-weight:normal;font-stretch:normal;font-size:26.81215286px;line-height:0;font-family:C059;-inkscape-font-specification:C059;letter-spacing:0px;word-spacing:0px;fill:#ffffff;fill-opacity:1;stroke:none;stroke-width:0.26458335"
       x="87.264244"
       y="160.52524"
       id="text1447"><tspan
         sodipodi:role="line"
         id="tspan1445"
         x="87.264244"
         y="160.52524"
         style="fill:#ffffff;stroke-width:0.26458335">Donate</tspan></text>
  </g>
</svg>
