<?xml version="1.0" encoding="UTF-8" standalone="no"?>
<svg
   viewBox="0 -256 1850 1850"
   id="svg3025"
   version="1.1"
   inkscape:version="1.1 (c4e8f9ed74, 2021-05-24)"
   width="100%"
   height="100%"
   sodipodi:docname="external.svg"
   xmlns:inkscape="http://www.inkscape.org/namespaces/inkscape"
   xmlns:sodipodi="http://sodipodi.sourceforge.net/DTD/sodipodi-0.dtd"
   xmlns="http://www.w3.org/2000/svg"
   xmlns:svg="http://www.w3.org/2000/svg"
   xmlns:rdf="http://www.w3.org/1999/02/22-rdf-syntax-ns#"
   xmlns:cc="http://creativecommons.org/ns#"
   xmlns:dc="http://purl.org/dc/elements/1.1/">
  <metadata
     id="metadata3035">
    <rdf:RDF>
      <cc:Work
         rdf:about="">
        <dc:format>image/svg+xml</dc:format>
        <dc:type
           rdf:resource="http://purl.org/dc/dcmitype/StillImage" />
      </cc:Work>
    </rdf:RDF>
  </metadata>
  <defs
     id="defs3033" />
  <sodipodi:namedview
     pagecolor="#ffffff"
     bordercolor="#666666"
     borderopacity="1"
     objecttolerance="10"
     gridtolerance="10"
     guidetolerance="10"
     inkscape:pageopacity="0"
     inkscape:pageshadow="2"
     inkscape:window-width="1868"
     inkscape:window-height="1026"
     id="namedview3031"
     showgrid="false"
     inkscape:zoom="0.13169643"
     inkscape:cx="899.7966"
     inkscape:cy="899.7966"
     inkscape:window-x="23"
     inkscape:window-y="15"
     inkscape:window-maximized="0"
     inkscape:current-layer="svg3025"
     inkscape:pagecheckerboard="0" />
  <g
     transform="matrix(1,0,0,-1,30.372881,1426.9492)"
     id="g3027"
     style="fill:#ececec">
    <path
       d="M 1408,608 V 288 Q 1408,169 1323.5,84.5 1239,0 1120,0 H 288 Q 169,0 84.5,84.5 0,169 0,288 v 832 Q 0,1239 84.5,1323.5 169,1408 288,1408 h 704 q 14,0 23,-9 9,-9 9,-23 v -64 q 0,-14 -9,-23 -9,-9 -23,-9 H 288 q -66,0 -113,-47 -47,-47 -47,-113 V 288 q 0,-66 47,-113 47,-47 113,-47 h 832 q 66,0 113,47 47,47 47,113 v 320 q 0,14 9,23 9,9 23,9 h 64 q 14,0 23,-9 9,-9 9,-23 z m 384,864 V 960 q 0,-26 -19,-45 -19,-19 -45,-19 -26,0 -45,19 L 1507,1091 855,439 q -10,-10 -23,-10 -13,0 -23,10 L 695,553 q -10,10 -10,23 0,13 10,23 l 652,652 -176,176 q -19,19 -19,45 0,26 19,45 19,19 45,19 h 512 q 26,0 45,-19 19,-19 19,-45 z"
       id="path3029"
       inkscape:connector-curvature="0"
       style="fill:#ececec" />
  </g>
</svg>
